<?xml version="1.0" encoding="UTF-8"?>
<svg width="24px" height="24px" viewBox="0 0 24 24" version="1.1" xmlns="http://www.w3.org/2000/svg" xmlns:xlink="http://www.w3.org/1999/xlink">
    <title>icon/social/facebook copy 7</title>
    <g id="Styleguide" stroke="none" stroke-width="1" fill="none" fill-rule="evenodd">
        <g id="OS_Styleguide-02" transform="translate(-984.000000, -1577.000000)" fill="#F7F7F7">
            <g id="Combined-Shape" transform="translate(984.000000, 1577.000000)">
                <path d="M12,0 C18.627417,0 24,5.372583 24,12 C24,18.627417 18.627417,24 12,24 C5.372583,24 0,18.627417 0,12 C0,5.372583 5.372583,0 12,0 Z M13.616847,5.4 C11.825346,5.4 10.598772,6.493533 10.598772,8.501787 L10.598772,8.501787 L10.598772,10.232304 L8.572533,10.232304 L8.572533,12.578865 L10.598772,12.578865 L10.598772,18.6 L13.021989,18.6 L13.021989,12.578865 L15.043101,12.578865 L15.345651,10.232304 L13.021992,10.232304 L13.021992,8.734131 C13.021992,8.054736 13.210644,7.591755 14.184963,7.591755 L14.184963,7.591755 L15.427464,7.591191 L15.427464,5.492448 C15.212529,5.463891 14.474994,5.4 13.616847,5.4 Z"></path>
            </g>
        </g>
    </g>
</svg>
