<svg width="100" height="100" viewBox="0 0 100 100" fill="none" xmlns="http://www.w3.org/2000/svg">
<rect x="16" y="17" width="65" height="64" rx="20" fill="white"/>
<path d="M35.8999 22.4L28.2999 7.90002C15.6999 14.5 6.49993 26.7 3.79993 41.1L20.2999 44.1C21.7999 34.7 27.6999 26.7 35.8999 22.4Z" fill="#FFC808"/>
<path d="M20 48.8C20 47.2 20.1 45.7 20.4 44.2L3.89998 41.2C3.39998 43.8 3.19998 46.5 3.09998 49.2C3.09998 53 3.49998 56.7 4.29998 60.3L21 56.5C20.3 54 20 51.4 20 48.8Z" fill="#F58B1F"/>
<path d="M20.9 56.4L4.19995 60.2C5.39995 65.3 7.39995 70.1 10.1 74.5L24.9 65.3C23.1 62.6 21.8 59.6 20.9 56.4Z" fill="#F99D1C"/>
<path d="M24.9 65.3L10.1 74.5C12.3 78 14.9 81.2 17.9 84.1C9.79997 86.6 1.59998 87.8 1.59998 87.8C1.89998 88.1 11.1 94.4 25.6 97.4L36.7 75.8C32 73.3 27.9 69.7 24.9 65.3Z" fill="#EF3B24"/>
<path d="M49.7999 78.6C45.0999 78.6 40.6999 77.5 36.7999 75.6L25.7 97.3C32.7 98.8 41 99.4 50.2 98.3V78.6C50 78.6 49.8999 78.6 49.7999 78.6Z" fill="#F26922"/>
<path d="M50.1 78.6V98.3C54.4 97.8 58.8 96.8 63.4 95.4C67.5 94.2 71.3 92.4 74.8 90.2L65.1 74.4C60.8 77 55.7 78.6 50.1 78.6Z" fill="#7FC042"/>
<path d="M79.6 48.8C79.6 59.6 73.8 69.1 65.2 74.3L74.9 90.1C81.6 85.9 87.2 80 91.1 73C94.9 66.2 97.1 58.4 97.2 50.2C97.2 46.6 96.9 43.1 96.2 39.7L79.1 43.4C79.4 45.2 79.6 47 79.6 48.8Z" fill="#C6D22D"/>
<path d="M50.6999 2.60001C42.5999 2.50001 34.9999 4.40001 28.2999 7.90001L35.8999 22.4C39.9999 20.2 44.7999 19 49.7999 19C64.3999 19 76.5999 29.5 79.0999 43.4L96.1999 39.7C91.6999 18.7 73.0999 2.90001 50.6999 2.60001Z" fill="#E9E015"/>
<path d="M37.4183 39.0952C38.294 39.1016 39.157 39.2614 40.0071 39.5746C40.8572 39.8878 41.6243 40.3991 42.3082 41.1087C42.9986 41.8182 43.5483 42.777 43.9574 43.9851C44.3729 45.1868 44.5838 46.6825 44.5902 48.4723C44.5902 50.1918 44.4176 51.7227 44.0724 53.065C43.7273 54.4009 43.2319 55.5291 42.5863 56.4496C41.9471 57.37 41.1705 58.07 40.2564 58.5494C39.3423 59.0288 38.3132 59.2685 37.169 59.2685C35.9993 59.2685 34.9606 59.0384 34.0529 58.5781C33.1452 58.1179 32.407 57.4819 31.8381 56.6701C31.2692 55.8519 30.9144 54.9123 30.7738 53.8512H33.6982C33.8899 54.695 34.2798 55.3789 34.8679 55.9031C35.4624 56.4208 36.2294 56.6797 37.169 56.6797C38.6072 56.6797 39.729 56.0533 40.5344 54.8004C41.3398 53.5412 41.7457 51.7834 41.7521 49.527H41.5987C41.2663 50.0767 40.8509 50.5497 40.3523 50.946C39.8601 51.3423 39.3072 51.6491 38.6935 51.8665C38.0799 52.0838 37.4247 52.1925 36.728 52.1925C35.5966 52.1925 34.5675 51.9144 33.6406 51.3583C32.7138 50.8022 31.9755 50.0384 31.4258 49.0668C30.8761 48.0952 30.6012 46.9862 30.6012 45.7397C30.6012 44.4996 30.8825 43.3746 31.445 42.3647C32.0138 41.3548 32.8065 40.5558 33.8228 39.9677C34.8455 39.3732 36.044 39.0824 37.4183 39.0952ZM37.4279 41.5881C36.68 41.5881 36.0057 41.7734 35.4048 42.1442C34.8104 42.5085 34.3406 43.0039 33.9954 43.6303C33.6502 44.2504 33.4776 44.9407 33.4776 45.7013C33.4776 46.462 33.6438 47.1523 33.9762 47.7724C34.315 48.386 34.7752 48.875 35.3569 49.2393C35.945 49.5973 36.6161 49.7763 37.3704 49.7763C37.9329 49.7763 38.457 49.6676 38.9428 49.4503C39.4286 49.233 39.8537 48.9325 40.218 48.549C40.5824 48.1591 40.8668 47.718 41.0714 47.2259C41.2759 46.7337 41.3782 46.2159 41.3782 45.6726C41.3782 44.9503 41.2056 44.2791 40.8604 43.6591C40.5217 43.0391 40.055 42.5405 39.4606 42.1634C38.8661 41.7798 38.1886 41.5881 37.4279 41.5881ZM51.1101 56.3153L50.9663 57.3604C50.8704 58.1275 50.7074 58.9265 50.4773 59.7575C50.2536 60.5948 50.0202 61.3714 49.7773 62.0874C49.5408 62.8033 49.3459 63.3722 49.1925 63.794H47.1598C47.2429 63.3977 47.358 62.8608 47.505 62.1832C47.652 61.5121 47.7958 60.761 47.9364 59.93C48.0771 59.0991 48.1825 58.2521 48.2528 57.3892L48.3487 56.3153H51.1101ZM61.2854 59.2685C60.0837 59.2685 59.0035 59.0384 58.0447 58.5781C57.0922 58.1115 56.3316 57.4723 55.7627 56.6605C55.1938 55.8487 54.8902 54.9219 54.8518 53.88H57.7282C57.7986 54.7237 58.1725 55.4173 58.8501 55.9606C59.5276 56.5039 60.3394 56.7756 61.2854 56.7756C62.0397 56.7756 62.7077 56.603 63.2893 56.2578C63.8774 55.9062 64.3376 55.4237 64.67 54.81C65.0088 54.1964 65.1782 53.4964 65.1782 52.7102C65.1782 51.9112 65.0056 51.1985 64.6604 50.5721C64.3153 49.9457 63.839 49.4535 63.2318 49.0955C62.6309 48.7376 61.9406 48.5554 61.1608 48.549C60.5663 48.549 59.9687 48.6513 59.3678 48.8558C58.767 49.0604 58.2812 49.3288 57.9104 49.6612L55.197 49.2585L56.2996 39.3636H67.0958V41.9045H58.7638L58.1405 47.3984H58.2556C58.6391 47.0277 59.1473 46.7177 59.7801 46.4684C60.4193 46.2191 61.1032 46.0945 61.8319 46.0945C63.0273 46.0945 64.0915 46.3789 65.0248 46.9478C65.9644 47.5167 66.7027 48.2933 67.2396 49.2777C67.7829 50.2557 68.0514 51.3807 68.045 52.6527C68.0514 53.9247 67.7638 55.0593 67.1821 56.0565C66.6068 57.0536 65.8078 57.8398 64.7851 58.4151C63.7687 58.984 62.6022 59.2685 61.2854 59.2685Z" fill="#77A77B"/>
</svg>
