<?xml version="1.0" encoding="UTF-8"?>
<svg width="14px" height="14px" viewBox="0 0 14 14" version="1.1" xmlns="http://www.w3.org/2000/svg" xmlns:xlink="http://www.w3.org/1999/xlink">
    <title>icon/close</title>
    <g id="icon/close" stroke="none" stroke-width="1" fill="none" fill-rule="evenodd">
        <path d="M8.41399117,7.00004958 L13.7066415,1.70700267 C14.0967285,1.31632068 14.0967285,0.683693489 13.7066415,0.293011495 C13.3153645,-0.0976704984 12.6823407,-0.0976704984 12.2922536,0.293011495 L6.99960337,5.58566177 L1.70695309,0.293011495 C1.31587447,-0.0976704984 0.683842226,-0.0976704984 0.292565285,0.293011495 C-0.0975217616,0.683693489 -0.0975217616,1.31632068 0.292565285,1.70700267 L5.58521556,7.00004958 L0.292565285,12.2928982 C-0.0975217616,12.6829852 -0.0975217616,13.316009 0.292565285,13.707286 C0.488699545,13.9022303 0.744130208,14 0.999759188,14 C1.25618143,14 1.51181041,13.9024287 1.70675478,13.707286 L6.99940505,8.4146357 L12.2920553,13.707286 C12.4869997,13.9022303 12.7436203,14 12.9990509,14 C13.2546799,14 13.5101106,13.9024287 13.7062448,13.707286 C14.0963319,13.316009 14.0963319,12.6829852 13.7062448,12.2928982 L8.41399117,7.00004958 Z" id="Path" fill="#1D1B28" fill-rule="nonzero"></path>
    </g>
</svg>