<?xml version="1.0" encoding="UTF-8"?>
<svg width="24px" height="24px" viewBox="0 0 24 24" version="1.1" xmlns="http://www.w3.org/2000/svg" xmlns:xlink="http://www.w3.org/1999/xlink">
    <title>icon/social/facebook copy 2</title>
    <g id="Styleguide" stroke="none" stroke-width="1" fill="none" fill-rule="evenodd">
        <g id="OS_Styleguide-02" transform="translate(-1248.000000, -1489.000000)" fill="#F7F7F7">
            <g id="Combined-Shape" transform="translate(1248.000000, 1489.000000)">
                <path d="M12,24 C18.627417,24 24,18.627417 24,12 C24,5.372583 18.627417,0 12,0 C5.372583,0 0,5.372583 0,12 C0,18.627417 5.372583,24 12,24 Z M17.99375,7 L6.00625,7 C5.7625,7 5.5,7.266667 5.5,7.516667 L5.5,16.483333 C5.5,16.733333 5.7625,17 6.00625,17 L17.99375,17 C18.2375,17 18.5,16.733333 18.5,16.483333 L18.5,7.516667 C18.5,7.266667 18.2375,7 17.99375,7 Z M17.05625,8 L6.94375,8 C6.7375,8 6.5,8.233333 6.5,8.433333 L6.5,15.566667 C6.5,15.766667 6.7375,16 6.94375,16 L17.05625,16 C17.2625,16 17.5,15.766667 17.5,15.566667 L17.5,8.433333 C17.5,8.233333 17.2625,8 17.05625,8 Z M16.8557034,9.21159263 L12.231224,12.4197949 C12.1541493,12.4598975 12.0770747,12.5 12,12.5 C11.9229253,12.5 11.8458507,12.4598975 11.768776,12.4197949 L7.1442966,9.21159263 C6.99014728,9.09128505 6.95160995,8.85066987 7.06722194,8.65015723 C7.18283393,8.48974711 7.4140579,8.44964458 7.60674454,8.56995217 L12,11.6177444 L16.3932555,8.56995217 C16.5859421,8.44964458 16.8171661,8.48974711 16.9327781,8.69025976 C17.04839,8.85066987 17.0098527,9.09128505 16.8557034,9.21159263 Z"></path>
            </g>
        </g>
    </g>
</svg>