<?xml version="1.0" encoding="UTF-8"?>
<svg width="24px" height="24px" viewBox="0 0 24 24" version="1.1" xmlns="http://www.w3.org/2000/svg" xmlns:xlink="http://www.w3.org/1999/xlink">
    <title>icon/social/facebook copy 3</title>
    <g id="Styleguide" stroke="none" stroke-width="1" fill="none" fill-rule="evenodd">
        <g id="OS_Styleguide-02" transform="translate(-1160.000000, -1489.000000)" fill="#F7F7F7" fill-rule="nonzero">
            <g id="logo-pinterest" transform="translate(1160.000000, 1489.000000)">
                <path d="M12.0372265,0 C5.3791356,0 0,5.37931034 0,12.0376176 C0,17.153605 3.15977196,21.4796238 7.63611557,23.2476489 C7.52326657,22.30721 7.4480339,20.8401254 7.6737319,19.7868339 C7.8994299,18.846395 9.10315255,13.8056426 9.10315255,13.8056426 C9.10315255,13.8056426 8.72698922,13.0909091 8.72698922,12 C8.72698922,10.3448276 9.70501387,9.06583072 10.9087365,9.06583072 C11.9243775,9.06583072 12.4133898,9.81818182 12.4133898,10.7586207 C12.4133898,11.7742947 11.7739122,13.354232 11.3977489,14.7836991 C11.0968182,15.9874608 11.9996102,16.9655172 13.1657165,16.9655172 C15.3098475,16.9655172 16.9649661,14.7084639 16.9649661,11.4357367 C16.9649661,8.53918495 14.8960678,6.54545455 11.9243775,6.54545455 C8.50129122,6.54545455 6.50762558,9.10344828 6.50762558,11.7742947 C6.50762558,12.8275862 6.92140524,13.9184953 7.41041757,14.5203762 C7.52326657,14.6332288 7.52326657,14.7460815 7.48565024,14.8589342 C7.41041757,15.2351097 7.18471957,16.0626959 7.14710324,16.2131661 C7.10948691,16.4388715 6.95902158,16.476489 6.73332358,16.3636364 C5.22867027,15.6489028 4.28826194,13.4670846 4.28826194,11.6990596 C4.28826194,7.89968652 7.03425424,4.40125392 12.2253082,4.40125392 C16.4007211,4.40125392 19.6357257,7.37304075 19.6357257,11.3605016 C19.6357257,15.4984326 17.0025824,18.846395 13.3914145,18.846395 C12.1876918,18.846395 11.0215855,18.2068966 10.6454222,17.4545455 C10.6454222,17.4545455 10.0435609,19.7492163 9.89309554,20.3134796 C9.62978121,21.3667712 8.87745455,22.6833856 8.38844222,23.4733542 C9.51693221,23.8119122 10.7206549,24 11.9619938,24 C18.6200848,24 23.9992204,18.6206897 23.9992204,11.9623824 C24.074453,5.37931034 18.6953174,0 12.0372265,0 Z" id="Path"></path>
            </g>
        </g>
    </g>
</svg>