<?xml version="1.0" encoding="UTF-8"?>
<svg width="24px" height="24px" viewBox="0 0 24 24" version="1.1" xmlns="http://www.w3.org/2000/svg" xmlns:xlink="http://www.w3.org/1999/xlink">
    <title>icon/account</title>
    <g id="icon/account" stroke="none" stroke-width="1" fill="none" fill-rule="evenodd">
        <g id="Group-8" fill="#FFFFFF" fill-rule="nonzero">
            <g id="noun_user-account_650376">
                <path d="M12,0 C5.37253333,0 0,5.37253333 0,12 C0,18.6274667 5.37253333,24 12,24 C18.6274667,24 24,18.6274667 24,12 C24,5.37253333 18.6274667,0 12,0 Z M12,5.3936 C14.6509333,5.3936 16.8,7.58533333 16.8,10.2888 C16.8,12.9922667 14.6509333,15.184 12,15.184 C9.34906667,15.184 7.2,12.9922667 7.2,10.2888 C7.2,7.58533333 9.34906667,5.3936 12,5.3936 Z M12,22.4 C9.12506667,22.4 6.5192,21.2272 4.63493333,19.3352 C6.20666667,17.8085333 8.91786667,16.8 12,16.8 C15.0821333,16.8 17.7933333,17.8085333 19.3650667,19.3352 C17.4808,21.2272 14.8749333,22.4 12,22.4 Z" id="Shape"></path>
            </g>
        </g>
    </g>
</svg>