<svg width="24" height="24" viewBox="0 0 24 24" fill="none" xmlns="http://www.w3.org/2000/svg">
<g clip-path="url(#clip0_43_13)">
<path d="M12 0C5.37188 0 0 5.37188 0 12C0 18.6281 5.37188 24 12 24C18.6281 24 24 18.6281 24 12C24 5.37188 18.6281 0 12 0ZM18.0187 9.18281V10.8094C17.2547 10.8094 16.5094 10.6594 15.8063 10.3641C15.3563 10.1719 14.9344 9.92813 14.55 9.63281L14.5594 14.6344C14.5547 15.7594 14.1094 16.8187 13.3031 17.6156C12.6469 18.2625 11.8172 18.675 10.9125 18.8109C10.7016 18.8437 10.4859 18.8578 10.2656 18.8578C9.3 18.8578 8.38594 18.5437 7.63594 17.9672C7.49531 17.8594 7.35938 17.7422 7.23281 17.6156C6.36094 16.7531 5.90625 15.5813 5.98594 14.3484C6.04219 13.4109 6.41719 12.5156 7.04531 11.8172C7.875 10.8891 9.03281 10.3734 10.2703 10.3734C11.5078 10.3734 10.7016 10.3875 10.9172 10.4203V12.6937C10.7156 12.6281 10.5 12.5906 10.2797 12.5906C9.15 12.5906 8.23125 13.5141 8.25 14.6437C8.25938 15.3703 8.65781 16.0031 9.23906 16.35C9.51563 16.5141 9.82969 16.6172 10.1672 16.6359C10.4297 16.65 10.6828 16.6125 10.9172 16.5375C11.7234 16.2703 12.3094 15.5109 12.3094 14.6156V11.2687C12.3141 11.2687 12.3141 5.14688 12.3141 5.14688H14.55C14.55 5.36719 14.5734 5.58281 14.6156 5.79375C14.7844 6.64219 15.2625 7.37813 15.9281 7.87969C16.5094 8.31563 17.2312 8.57812 18.0141 8.57812V9.18281H18.0187Z" fill="#F7F7F7"/>
</g>
<defs>
<clipPath id="clip0_43_13">
<rect width="24" height="24" fill="white"/>
</clipPath>
</defs>
</svg>
