<?xml version="1.0" encoding="UTF-8"?>
<svg width="16px" height="16px" viewBox="0 0 16 16" version="1.1" xmlns="http://www.w3.org/2000/svg" xmlns:xlink="http://www.w3.org/1999/xlink">
    <title>icon/send</title>
    <g id="icon/send" stroke="none" stroke-width="1" fill="none" fill-rule="evenodd">
        <path d="M15.8576933,1.62403482 C16.0230221,1.78391549 16.0022115,2.01138207 15.9952746,2.08599305 C15.9934248,2.12572097 15.9853318,2.18870426 15.9753889,2.26065056 L15.9638274,2.34713147 C15.9617464,2.36336178 15.9587404,2.37959209 15.9545783,2.39558015 L13.2122009,12.9464929 C13.1275711,13.3045287 12.8547207,13.5319952 12.6227979,13.5952208 C12.5737774,13.6085442 12.5252192,13.6150847 12.4780485,13.6150847 C12.3723768,13.6150847 12.273642,13.5823819 12.1938679,13.5203676 L9.50675434,12.0647268 L6.82449658,14.3071742 C6.80738562,14.3214666 6.78773115,14.3287339 6.76923282,14.3389081 C6.67627871,14.434352 6.55835186,14.4944284 6.42632004,14.4995155 C6.41984562,14.4997578 6.41313998,14.5 6.40666556,14.5 C6.20179656,14.5 6.01542589,14.3752446 5.92779006,14.1783007 C5.92293425,14.1673998 5.91830966,14.1560143 5.91437877,14.1443866 L4.25207264,9.14036405 L0.380834757,7.84702636 C0.372972967,7.84436169 0.365111177,7.84169701 0.357018158,7.8383056 C0.141050162,7.74746431 0.000925317161,7.53138317 -4.20318099e-06,7.28792852 C-0.000924515779,7.04471611 0.137581726,6.82790824 0.352624805,6.73537125 C0.359792908,6.73222209 0.367192239,6.72955741 0.3748228,6.72689273 L15.1235408,1.58333792 C15.2403115,1.54724365 15.3260975,1.52568399 15.3975473,1.51381406 C15.464835,1.50145964 15.6886648,1.46003602 15.8576933,1.62403482 Z M14.7588925,2.39679137 L5.05281908,8.87704544 L6.18006103,13.7916802 C6.21936998,13.9622196 6.44412468,13.9799033 6.50771269,13.8176003 L7.96260629,10.3251767 C7.99983418,10.1786194 8.07336504,10.0444165 8.17603077,9.93661821 L14.9764791,2.68457657 C15.4195141,2.11942264 14.9369389,2.28245247 14.7588925,2.39679137 Z" id="Combined-Shape" fill="#FFFFFF"></path>
    </g>
</svg>