<svg width="26" height="24" viewBox="0 0 26 24" fill="none" xmlns="http://www.w3.org/2000/svg">
<path d="M8.82023 24C9.94794 24 10.8621 23.0858 10.8621 21.9581C10.8621 20.8304 9.94794 19.9162 8.82023 19.9162C7.69251 19.9162 6.77832 20.8304 6.77832 21.9581C6.77832 23.0858 7.69251 24 8.82023 24Z" fill="white"/>
<path d="M19.4384 24C20.5661 24 21.4803 23.0858 21.4803 21.9581C21.4803 20.8304 20.5661 19.9162 19.4384 19.9162C18.3107 19.9162 17.3965 20.8304 17.3965 21.9581C17.3965 23.0858 18.3107 24 19.4384 24Z" fill="white"/>
<path d="M24.829 3.08271C24.7529 2.98387 24.6552 2.90377 24.5434 2.84855C24.4315 2.79334 24.3085 2.76447 24.1838 2.76417H5.31656L4.94901 1.5962C4.90864 1.4708 4.83853 1.35702 4.74466 1.26457C4.6508 1.17213 4.53596 1.10376 4.40995 1.06531L1.06122 0.0361854C0.958255 0.00454406 0.850063 -0.00650645 0.742824 0.00366507C0.635585 0.0138366 0.531399 0.0450308 0.436216 0.0954667C0.243984 0.197327 0.100089 0.371378 0.0361864 0.579333C-0.0277161 0.787287 -0.00639192 1.01211 0.0954679 1.20434C0.197328 1.39657 0.37138 1.54047 0.579334 1.60437L3.51151 2.50281L7.25228 14.3214L5.92096 15.4158L5.81478 15.522C5.48554 15.9032 5.29901 16.387 5.28709 16.8906C5.27517 17.3942 5.43861 17.8863 5.74944 18.2827C5.97206 18.5534 6.25494 18.7683 6.57546 18.9101C6.89599 19.0519 7.24525 19.1167 7.59532 19.0994H21.2271C21.4437 19.0994 21.6515 19.0134 21.8046 18.8602C21.9578 18.707 22.0439 18.4993 22.0439 18.2827C22.0439 18.066 21.9578 17.8583 21.8046 17.7051C21.6515 17.552 21.4437 17.4659 21.2271 17.4659H7.46464C7.37059 17.4627 7.27895 17.4353 7.19859 17.3863C7.11822 17.3373 7.05184 17.2685 7.00586 17.1864C6.95988 17.1043 6.93585 17.0117 6.9361 16.9176C6.93634 16.8235 6.96085 16.731 7.00725 16.6491L8.97565 15.0156H21.5783C21.7649 15.021 21.9477 14.9624 22.0963 14.8495C22.2449 14.7365 22.3503 14.5761 22.3951 14.3949L25.0087 3.77696C25.0335 3.65519 25.0303 3.52937 24.9991 3.40906C24.968 3.28875 24.9098 3.17713 24.829 3.08271Z" fill="white"/>
</svg>
