<?xml version="1.0" encoding="UTF-8"?>
<svg width="20px" height="20px" viewBox="0 0 20 20" version="1.1" xmlns="http://www.w3.org/2000/svg" xmlns:xlink="http://www.w3.org/1999/xlink">
    <title>icon/cart/white</title>
    <g id="icon/cart/white" stroke="none" stroke-width="1" fill="none" fill-rule="evenodd">
        <path d="M0.547677758,1.94279154 C0.219071103,1.94279154 0,1.72120238 0,1.38881864 C0,1.0564349 0.219071103,0.834845735 0.547677758,0.834845735 L2.35501436,0.834845735 C3.55990542,0.834845735 4.54572539,1.66580509 4.76479649,2.88454548 L4.87433204,3.71550484 L18.8401149,3.77090213 C19.3330248,3.77090213 19.9902382,4.32487503 19.7163993,5.04503981 L17.0327783,12.4682767 C16.8684749,12.8560578 16.5398683,13.0776469 16.1564938,13.0776469 L6.40782976,13.0776469 L6.73643642,14.9057575 L16.5946361,14.9057575 C16.8684749,14.9057575 17.1423138,15.1273467 17.1423138,15.4597304 C17.1423138,15.7921141 16.8684749,16.0137033 16.5946361,16.0137033 L6.24352644,16.0137033 C6.02445533,16.0137033 5.75061645,15.8475114 5.75061645,15.570525 L3.66944098,3.05073735 C3.55990542,2.38596987 3.01222767,1.94279154 2.35501436,1.94279154 L0.547677758,1.94279154 Z" id="Path" fill="#FFFFFF" fill-rule="nonzero"></path>
        <path d="M7.66748861,16.9554572 C8.37946969,16.9554572 8.98191522,17.5648274 8.98191522,18.2849922 C8.98191522,19.0605543 8.37946969,19.6699245 7.66748861,19.6699245 C6.90073975,19.6699245 6.29829421,19.0605543 6.29829421,18.2849922 C6.29829421,17.5648274 6.90073975,16.9554572 7.66748861,16.9554572 Z" id="Path" fill="#FFFFFF"></path>
        <path d="M14.6229961,16.9554572 C15.3349772,16.9554572 15.9374227,17.5648274 15.9374227,18.2849922 C15.9374227,19.0605543 15.3349772,19.6699245 14.6229961,19.6699245 C13.911015,19.6699245 13.3085695,19.0605543 13.3085695,18.2849922 C13.3085695,17.5648274 13.911015,16.9554572 14.6229961,16.9554572 Z" id="Path" fill="#FFFFFF"></path>
    </g>
</svg>